<svg xmlns="http://www.w3.org/2000/svg" viewBox="0 -0.5 24 24" shape-rendering="crispEdges"><path stroke="#2b1b41" d="M0 0h1" /><path stroke="#201131" d="M1 0h1" /><path stroke="#403254" d="M2 0h1" /><path stroke="#34204b" d="M3 0h1" /><path stroke="#44355a" d="M4 0h1" /><path stroke="#2e1d42" d="M5 0h1" /><path stroke="#3d2756" d="M6 0h1M18 0h1M22 21h1" /><path stroke="#46325e" d="M7 0h1" /><path stroke="#422b5d" d="M8 0h1M21 3h1M18 23h1" /><path stroke="#4d3966" d="M9 0h1" /><path stroke="#493263" d="M10 0h1M7 1h1" /><path stroke="#4e3a68" d="M11 0h1" /><path stroke="#4a3165" d="M12 0h1" /><path stroke="#3b2754" d="M13 0h1" /><path stroke="#4e3a67" d="M14 0h1M3 4h1" /><path stroke="#442c5f" d="M15 0h1" /><path stroke="#4c3965" d="M16 0h1" /><path stroke="#35234c" d="M17 0h1" /><path stroke="#44305b" d="M19 0h1" /><path stroke="#331e4c" d="M20 0h1" /><path stroke="#423257" d="M21 0h1" /><path stroke="#321f48" d="M22 0h1" /><path stroke="#403152" d="M23 0h1" /><path stroke="#403252" d="M0 1h1" /><path stroke="#413254" d="M1 1h1" /><path stroke="#301d49" d="M2 1h1M23 2h1" /><path stroke="#412f58" d="M3 1h1" /><path stroke="#392353" d="M4 1h1" /><path stroke="#493862" d="M5 1h1M0 17h1" /><path stroke="#4b3863" d="M6 1h1M20 22h1" /><path stroke="#523c6c" d="M8 1h1" /><path stroke="#442f5e" d="M9 1h1" /><path stroke="#564171" d="M10 1h1" /><path stroke="#463161" d="M11 1h1" /><path stroke="#564071" d="M12 1h1M1 13h1" /><path stroke="#574171" d="M13 1h1" /><path stroke="#4f376d" d="M14 1h1" /><path stroke="#523c6e" d="M15 1h1M15 23h1" /><path stroke="#463066" d="M16 1h1" /><path stroke="#503b68" d="M17 1h1" /><path stroke="#4c3a64" d="M18 1h1" /><path stroke="#402b59" d="M19 1h1" /><path stroke="#44315b" d="M20 1h1" /><path stroke="#2e1e42" d="M21 1h1" /><path stroke="#413256" d="M22 1h1M23 23h1" /><path stroke="#241637" d="M23 1h1" /><path stroke="#413155" d="M0 2h1" /><path stroke="#33204c" d="M1 2h1" /><path stroke="#322146" d="M2 2h1" /><path stroke="#412d5a" d="M3 2h1" /><path stroke="#4a3662" d="M4 2h1" /><path stroke="#462e61" d="M5 2h1" /><path stroke="#513d6a" d="M6 2h1" /><path stroke="#473260" d="M7 2h1" /><path stroke="#513970" d="M8 2h1" /><path stroke="#5b4478" d="M9 2h1" /><path stroke="#583e78" d="M10 2h1" /><path stroke="#593e78" d="M11 2h1M2 13h1M12 22h1" /><path stroke="#5e467c" d="M12 2h1M19 5h1M3 16h1" /><path stroke="#5b417a" d="M13 2h1" /><path stroke="#513a6e" d="M14 2h1M1 14h1M11 22h1M17 22h1" /><path stroke="#5b4177" d="M15 2h1" /><path stroke="#564073" d="M16 2h1" /><path stroke="#50376d" d="M17 2h1" /><path stroke="#503b6a" d="M18 2h1" /><path stroke="#3d2954" d="M19 2h1M21 23h1" /><path stroke="#422d5c" d="M20 2h1" /><path stroke="#46345e" d="M21 2h1" /><path stroke="#372350" d="M22 2h1" /><path stroke="#37254f" d="M0 3h1" /><path stroke="#423059" d="M1 3h1" /><path stroke="#402c58" d="M2 3h1" /><path stroke="#4a3864" d="M3 3h1" /><path stroke="#3f2b56" d="M4 3h1" /><path stroke="#4d346a" d="M5 3h1" /><path stroke="#574173" d="M6 3h1M18 21h1" /><path stroke="#5b4477" d="M7 3h1" /><path stroke="#624a7f" d="M8 3h1" /><path stroke="#6b5388" d="M9 3h1" /><path stroke="#674e85" d="M10 3h1" /><path stroke="#684e86" d="M11 3h1" /><path stroke="#695089" d="M12 3h1" /><path stroke="#684f87" d="M13 3h1M7 4h1" /><path stroke="#695088" d="M14 3h1" /><path stroke="#604880" d="M15 3h1M3 15h1" /><path stroke="#533b70" d="M16 3h1" /><path stroke="#593e77" d="M17 3h1" /><path stroke="#584273" d="M18 3h1" /><path stroke="#533e6e" d="M19 3h1" /><path stroke="#4d3868" d="M20 3h1" /><path stroke="#493760" d="M22 3h1" /><path stroke="#45345b" d="M23 3h1" /><path stroke="#2c1b40" d="M0 4h1" /><path stroke="#3b2554" d="M1 4h1M23 4h1M4 23h1" /><path stroke="#493662" d="M2 4h1" /><path stroke="#4f386c" d="M4 4h1" /><path stroke="#594275" d="M5 4h1M20 19h1" /><path stroke="#523b6f" d="M6 4h1" /><path stroke="#6c548c" d="M8 4h1" /><path stroke="#6a508b" d="M9 4h1" /><path stroke="#654985" d="M10 4h1" /><path stroke="#735895" d="M11 4h1M11 20h1" /><path stroke="#684c8a" d="M12 4h1M17 19h1" /><path stroke="#745895" d="M13 4h1" /><path stroke="#6e538f" d="M14 4h1M4 14h1" /><path stroke="#694e89" d="M15 4h1M19 17h1" /><path stroke="#6b528a" d="M16 4h1" /><path stroke="#614780" d="M17 4h1" /><path stroke="#533a70" d="M18 4h1M3 6h1" /><path stroke="#553c72" d="M19 4h1" /><path stroke="#4d346b" d="M20 4h1" /><path stroke="#4e3968" d="M21 4h1" /><path stroke="#37254e" d="M22 4h1" /><path stroke="#46365c" d="M0 5h1" /><path stroke="#4a3761" d="M1 5h1M19 23h1" /><path stroke="#462d60" d="M2 5h1" /><path stroke="#44305d" d="M3 5h1M21 19h1" /><path stroke="#594274" d="M4 5h1" /><path stroke="#5b3f7a" d="M5 5h1" /><path stroke="#685088" d="M6 5h1" /><path stroke="#6a4f89" d="M7 5h1" /><path stroke="#674c88" d="M8 5h1" /><path stroke="#765a98" d="M9 5h1" /><path stroke="#745898" d="M10 5h1" /><path stroke="#7a5c9d" d="M11 5h1" /><path stroke="#785a9c" d="M12 5h1" /><path stroke="#775a9b" d="M13 5h1" /><path stroke="#795b9b" d="M14 5h1" /><path stroke="#6a4f8d" d="M15 5h1" /><path stroke="#6f5390" d="M16 5h1" /><path stroke="#715691" d="M17 5h1" /><path stroke="#634984" d="M18 5h1M3 14h1" /><path stroke="#4c3667" d="M20 5h1" /><path stroke="#4e376c" d="M21 5h1M23 14h1" /><path stroke="#4f3a68" d="M22 5h1" /><path stroke="#432d5d" d="M23 5h1" /><path stroke="#412c59" d="M0 6h1" /><path stroke="#3a2952" d="M1 6h1" /><path stroke="#493267" d="M2 6h1" /><path stroke="#5d467a" d="M4 6h1M4 18h1" /><path stroke="#664d85" d="M5 6h1M5 18h1" /><path stroke="#634883" d="M6 6h1M6 18h1" /><path stroke="#735694" d="M7 6h1" /><path stroke="#765a9a" d="M8 6h1M5 13h1M5 14h1" /><path stroke="#7a5c9e" d="M9 6h1M18 9h1" /><path stroke="#7f61a4" d="M10 6h1M7 16h1M10 18h1" /><path stroke="#7e5ea4" d="M11 6h1" /><path stroke="#8364a7" d="M12 6h1" /><path stroke="#7b5da1" d="M13 6h1M11 18h1" /><path stroke="#7f61a5" d="M14 6h1M14 18h1" /><path stroke="#7d5fa2" d="M15 6h1M8 7h1" /><path stroke="#775a9a" d="M16 6h1" /><path stroke="#725694" d="M17 6h1" /><path stroke="#614882" d="M18 6h1" /><path stroke="#624a82" d="M19 6h1M18 19h1" /><path stroke="#5a417a" d="M20 6h1M22 12h1" /><path stroke="#5b4375" d="M21 6h1" /><path stroke="#493266" d="M22 6h1M1 16h1" /><path stroke="#3b2852" d="M23 6h1" /><path stroke="#493762" d="M0 7h1" /><path stroke="#4a3265" d="M1 7h1" /><path stroke="#543d70" d="M2 7h1M1 10h1" /><path stroke="#5c4479" d="M3 7h1" /><path stroke="#573e76" d="M4 7h1" /><path stroke="#6d538d" d="M5 7h1" /><path stroke="#715593" d="M6 7h1" /><path stroke="#7a5e9e" d="M7 7h1" /><path stroke="#8060a6" d="M9 7h1" /><path stroke="#8866ae" d="M10 7h1" /><path stroke="#8968b1" d="M11 7h1M13 7h1M9 8h1" /><path stroke="#8867b0" d="M12 7h1M17 13h1M15 16h1M12 17h1" /><path stroke="#8766ad" d="M14 7h1" /><path stroke="#8263a9" d="M15 7h1" /><path stroke="#785a9d" d="M16 7h1" /><path stroke="#76589b" d="M17 7h1M19 13h1M17 17h1" /><path stroke="#6e5291" d="M18 7h1" /><path stroke="#674a89" d="M19 7h1M9 20h1" /><path stroke="#604780" d="M20 7h1" /><path stroke="#4f386b" d="M21 7h1M3 17h1" /><path stroke="#543e70" d="M22 7h1" /><path stroke="#462f62" d="M23 7h1" /><path stroke="#37234e" d="M0 8h1" /><path stroke="#533e6d" d="M1 8h1" /><path stroke="#523a70" d="M2 8h1" /><path stroke="#5a3f7a" d="M3 8h1" /><path stroke="#654d86" d="M4 8h1" /><path stroke="#6d528f" d="M5 8h1" /><path stroke="#795b9d" d="M6 8h1" /><path stroke="#795a9d" d="M7 8h1" /><path stroke="#8465aa" d="M8 8h1" /><path stroke="#8e6db7" d="M10 8h1" /><path stroke="#9270bb" d="M11 8h1" /><path stroke="#906dba" d="M12 8h1M9 9h1" /><path stroke="#9170bb" d="M13 8h1" /><path stroke="#8e6eb8" d="M14 8h1" /><path stroke="#8a69b2" d="M15 8h1" /><path stroke="#8565ab" d="M16 8h1" /><path stroke="#7c5ea2" d="M17 8h1" /><path stroke="#775899" d="M18 8h1" /><path stroke="#664b88" d="M19 8h1M12 20h1" /><path stroke="#684d87" d="M20 8h1" /><path stroke="#5b417b" d="M21 8h1" /><path stroke="#594175" d="M22 8h1" /><path stroke="#493166" d="M23 8h1M16 23h1" /><path stroke="#4e3a66" d="M0 9h1" /><path stroke="#4d356a" d="M1 9h1" /><path stroke="#584076" d="M2 9h1" /><path stroke="#614680" d="M3 9h1M4 15h1" /><path stroke="#694d8a" d="M4 9h1" /><path stroke="#6c4f8e" d="M5 9h1" /><path stroke="#7a5d9f" d="M6 9h1" /><path stroke="#8263aa" d="M7 9h1" /><path stroke="#8967b2" d="M8 9h1M8 15h1" /><path stroke="#9673c0" d="M10 9h1" /><path stroke="#9875c4" d="M11 9h1M13 9h1M15 11h1M9 13h1M13 15h1" /><path stroke="#9a77c6" d="M12 9h1M12 15h1" /><path stroke="#9572c0" d="M14 9h1M9 10h1M15 10h1M9 14h1M15 14h1M10 15h1M14 15h1" /><path stroke="#8f6dba" d="M15 9h1" /><path stroke="#8868b1" d="M16 9h1" /><path stroke="#7f60a5" d="M17 9h1" /><path stroke="#725595" d="M19 9h1" /><path stroke="#694c8a" d="M20 9h1" /><path stroke="#60457f" d="M21 9h1" /><path stroke="#553c75" d="M22 9h1" /><path stroke="#533d6d" d="M23 9h1" /><path stroke="#473062" d="M0 10h1" /><path stroke="#50396d" d="M2 10h1M14 22h1" /><path stroke="#634884" d="M3 10h1" /><path stroke="#6f538f" d="M4 10h1" /><path stroke="#775999" d="M5 10h1" /><path stroke="#7e5fa3" d="M6 10h1M16 17h1" /><path stroke="#8967af" d="M7 10h1M14 17h1" /><path stroke="#8d6bb7" d="M8 10h1" /><path stroke="#9c77c7" d="M10 10h1M14 10h1M10 14h1" /><path stroke="#a17ccb" d="M11 10h1" /><path stroke="#a07ccd" d="M12 10h1M10 12h1M12 14h1" /><path stroke="#9e7acb" d="M13 10h1M14 11h1M10 13h1M11 14h1" /><path stroke="#8c6bb6" d="M16 10h1M16 14h1" /><path stroke="#8665ad" d="M17 10h1" /><path stroke="#7d5ea3" d="M18 10h1" /><path stroke="#745598" d="M19 10h1M8 18h1M14 19h1" /><path stroke="#6d518e" d="M20 10h1" /><path stroke="#644a84" d="M21 10h1" /><path stroke="#573d77" d="M22 10h1" /><path stroke="#463060" d="M23 10h1" /><path stroke="#513b69" d="M0 11h1" /><path stroke="#50386e" d="M1 11h1" /><path stroke="#5d457c" d="M2 11h1" /><path stroke="#664b86" d="M3 11h1M3 13h1" /><path stroke="#735794" d="M4 11h1" /><path stroke="#785b9b" d="M5 11h1" /><path stroke="#8263a7" d="M6 11h1" /><path stroke="#8867b1" d="M7 11h1M7 12h1M7 13h1M9 16h1" /><path stroke="#916fbb" d="M8 11h1M8 13h1M13 16h1" /><path stroke="#9975c4" d="M9 11h1M15 13h1M11 15h1" /><path stroke="#9f7acc" d="M10 11h1M14 13h1" /><path stroke="#a580d3" d="M11 11h1" /><path stroke="#a580d4" d="M12 11h1" /><path stroke="#a37ed2" d="M13 11h1" /><path stroke="#9370bc" d="M16 11h1" /><path stroke="#8866b0" d="M17 11h1M17 12h1" /><path stroke="#7e5fa5" d="M18 11h1" /><path stroke="#795a9c" d="M19 11h1" /><path stroke="#654a88" d="M20 11h1" /><path stroke="#654a86" d="M21 11h1" /><path stroke="#5c437b" d="M22 11h1" /><path stroke="#553e72" d="M23 11h1" /><path stroke="#493063" d="M0 12h1" /><path stroke="#453061" d="M1 12h1" /><path stroke="#5e457c" d="M2 12h1" /><path stroke="#654986" d="M3 12h1" /><path stroke="#705492" d="M4 12h1" /><path stroke="#735597" d="M5 12h1" /><path stroke="#8364aa" d="M6 12h1M9 17h1" /><path stroke="#926fbc" d="M8 12h1M12 16h1" /><path stroke="#9b77c6" d="M9 12h1M15 12h1" /><path stroke="#a882d5" d="M11 12h1M13 12h1M12 13h1" /><path stroke="#a983d5" d="M12 12h1" /><path stroke="#a27dcf" d="M14 12h1" /><path stroke="#8f6ebb" d="M16 12h1" /><path stroke="#8161a8" d="M18 12h1" /><path stroke="#76599b" d="M19 12h1" /><path stroke="#6e5091" d="M20 12h1" /><path stroke="#664c86" d="M21 12h1" /><path stroke="#563f71" d="M23 12h1" /><path stroke="#4f3b67" d="M0 13h1" /><path stroke="#745995" d="M4 13h1" /><path stroke="#7f60a4" d="M6 13h1M18 13h1" /><path stroke="#a37fd1" d="M11 13h1" /><path stroke="#a47fd1" d="M13 13h1" /><path stroke="#906fbb" d="M16 13h1" /><path stroke="#6f5290" d="M20 13h1" /><path stroke="#5d447c" d="M21 13h1" /><path stroke="#5d467b" d="M22 13h1" /><path stroke="#493363" d="M23 13h1M3 21h1" /><path stroke="#4e3967" d="M0 14h1" /><path stroke="#513a6d" d="M2 14h1" /><path stroke="#7d5ea2" d="M6 14h1M17 16h1" /><path stroke="#8665af" d="M7 14h1" /><path stroke="#916db9" d="M8 14h1" /><path stroke="#a17ccd" d="M13 14h1" /><path stroke="#9a76c7" d="M14 14h1" /><path stroke="#8765af" d="M17 14h1" /><path stroke="#7c5ea1" d="M18 14h1" /><path stroke="#705292" d="M19 14h1M18 16h1" /><path stroke="#6b4e8e" d="M20 14h1" /><path stroke="#644b85" d="M21 14h1" /><path stroke="#5a3f78" d="M22 14h1" /><path stroke="#483263" d="M0 15h1" /><path stroke="#533c6f" d="M1 15h1" /><path stroke="#594076" d="M2 15h1" /><path stroke="#765a99" d="M5 15h1" /><path stroke="#7b5c9f" d="M6 15h1" /><path stroke="#8362aa" d="M7 15h1" /><path stroke="#936fbb" d="M9 15h1" /><path stroke="#906eba" d="M15 15h1" /><path stroke="#8665ae" d="M16 15h1" /><path stroke="#8061a8" d="M17 15h1" /><path stroke="#7c5da0" d="M18 15h1M9 18h1" /><path stroke="#715594" d="M19 15h1" /><path stroke="#684e8a" d="M20 15h1" /><path stroke="#5e447e" d="M21 15h1" /><path stroke="#594378" d="M22 15h1" /><path stroke="#543e6f" d="M23 15h1M20 20h1" /><path stroke="#382650" d="M0 16h1" /><path stroke="#584073" d="M2 16h1M16 22h1" /><path stroke="#634985" d="M4 16h1" /><path stroke="#6f5491" d="M5 16h1" /><path stroke="#715493" d="M6 16h1" /><path stroke="#8666ad" d="M8 16h1M10 17h1" /><path stroke="#8e6bb8" d="M10 16h1" /><path stroke="#916ebc" d="M11 16h1" /><path stroke="#8e6cb7" d="M14 16h1" /><path stroke="#8665ac" d="M16 16h1" /><path stroke="#6d5090" d="M19 16h1" /><path stroke="#624784" d="M20 16h1M13 21h1" /><path stroke="#5f457d" d="M21 16h1" /><path stroke="#493365" d="M22 16h1M4 21h1" /><path stroke="#4b3367" d="M23 16h1" /><path stroke="#4e3a69" d="M1 17h1" /><path stroke="#4f366c" d="M2 17h1" /><path stroke="#634982" d="M4 17h1" /><path stroke="#725691" d="M5 17h1" /><path stroke="#745896" d="M6 17h1" /><path stroke="#795b9c" d="M7 17h1" /><path stroke="#7c5da2" d="M8 17h1" /><path stroke="#8a68b1" d="M11 17h1" /><path stroke="#8767b0" d="M13 17h1" /><path stroke="#7e5fa6" d="M15 17h1" /><path stroke="#6f5392" d="M18 17h1" /><path stroke="#5a4178" d="M20 17h1" /><path stroke="#594078" d="M21 17h1" /><path stroke="#553e70" d="M22 17h1" /><path stroke="#4a3365" d="M23 17h1" /><path stroke="#412c5a" d="M0 18h1" /><path stroke="#3d2a54" d="M1 18h1" /><path stroke="#4c3369" d="M2 18h1M9 23h1" /><path stroke="#563b72" d="M3 18h1" /><path stroke="#705293" d="M7 18h1" /><path stroke="#8363a9" d="M12 18h1" /><path stroke="#7c5da1" d="M13 18h1" /><path stroke="#7c60a1" d="M15 18h1" /><path stroke="#76589a" d="M16 18h1" /><path stroke="#705393" d="M17 18h1" /><path stroke="#614681" d="M18 18h1" /><path stroke="#654c84" d="M19 18h1M6 19h1M15 21h1" /><path stroke="#5b407a" d="M20 18h1M18 20h1M8 21h1" /><path stroke="#594174" d="M21 18h1" /><path stroke="#483066" d="M22 18h1M8 23h1" /><path stroke="#3a2751" d="M23 18h1" /><path stroke="#46355b" d="M0 19h1" /><path stroke="#432e5c" d="M1 19h1" /><path stroke="#4d3667" d="M2 19h1" /><path stroke="#533e6f" d="M3 19h1M4 20h1" /><path stroke="#4b3567" d="M4 19h1" /><path stroke="#664d82" d="M5 19h1" /><path stroke="#705590" d="M7 19h1M15 20h1" /><path stroke="#6b4e8f" d="M8 19h1" /><path stroke="#6b4f8e" d="M9 19h1" /><path stroke="#765799" d="M10 19h1" /><path stroke="#78589c" d="M11 19h1" /><path stroke="#77589c" d="M12 19h1" /><path stroke="#78599d" d="M13 19h1" /><path stroke="#725695" d="M15 19h1" /><path stroke="#664a88" d="M16 19h1" /><path stroke="#5c407a" d="M19 19h1" /><path stroke="#503a68" d="M22 19h1" /><path stroke="#3f2a59" d="M23 19h1" /><path stroke="#28193d" d="M0 20h1" /><path stroke="#48355e" d="M1 20h1" /><path stroke="#402a5c" d="M2 20h1" /><path stroke="#472f62" d="M3 20h1" /><path stroke="#594374" d="M5 20h1" /><path stroke="#634c81" d="M6 20h1" /><path stroke="#5e427f" d="M7 20h1" /><path stroke="#654886" d="M8 20h1" /><path stroke="#6f548f" d="M10 20h1" /><path stroke="#6f5490" d="M13 20h1" /><path stroke="#725693" d="M14 20h1" /><path stroke="#674e86" d="M16 20h1" /><path stroke="#624a80" d="M17 20h1" /><path stroke="#4d3567" d="M19 20h1" /><path stroke="#493163" d="M21 20h1" /><path stroke="#4b3864" d="M22 20h1" /><path stroke="#3a2453" d="M23 20h1" /><path stroke="#443458" d="M0 21h1" /><path stroke="#36214f" d="M1 21h1" /><path stroke="#432f5b" d="M2 21h1" /><path stroke="#422f5d" d="M5 21h1" /><path stroke="#5a4474" d="M6 21h1" /><path stroke="#624b7e" d="M7 21h1" /><path stroke="#6a5288" d="M9 21h1" /><path stroke="#614682" d="M10 21h1" /><path stroke="#654b84" d="M11 21h1" /><path stroke="#664c85" d="M12 21h1" /><path stroke="#624983" d="M14 21h1" /><path stroke="#654d82" d="M16 21h1" /><path stroke="#4d376b" d="M17 21h1" /><path stroke="#513a6c" d="M19 21h1" /><path stroke="#442d61" d="M20 21h1" /><path stroke="#3f2a5b" d="M21 21h1" /><path stroke="#453459" d="M23 21h1" /><path stroke="#2e1b45" d="M0 22h1" /><path stroke="#3c2b53" d="M1 22h1" /><path stroke="#2d1e42" d="M2 22h1" /><path stroke="#3f2b58" d="M3 22h1" /><path stroke="#4a3663" d="M4 22h1" /><path stroke="#4b3565" d="M5 22h1" /><path stroke="#564370" d="M6 22h1" /><path stroke="#614d7b" d="M7 22h1" /><path stroke="#5b4576" d="M8 22h1" /><path stroke="#5d4779" d="M9 22h1" /><path stroke="#665084" d="M10 22h1" /><path stroke="#5d437b" d="M13 22h1" /><path stroke="#563d75" d="M15 22h1" /><path stroke="#4f3b6b" d="M18 22h1" /><path stroke="#472f61" d="M19 22h1" /><path stroke="#46335d" d="M21 22h1" /><path stroke="#36204f" d="M22 22h1" /><path stroke="#28193b" d="M23 22h1" /><path stroke="#413153" d="M0 23h1" /><path stroke="#2d1943" d="M1 23h1" /><path stroke="#423258" d="M2 23h1" /><path stroke="#443159" d="M3 23h1" /><path stroke="#493562" d="M5 23h1" /><path stroke="#5c4a74" d="M6 23h1" /><path stroke="#533f6a" d="M7 23h1" /><path stroke="#5a4575" d="M10 23h1" /><path stroke="#573f72" d="M11 23h1" /><path stroke="#574072" d="M12 23h1" /><path stroke="#4f366d" d="M13 23h1" /><path stroke="#553f71" d="M14 23h1" /><path stroke="#4f3969" d="M17 23h1" /><path stroke="#311f45" d="M20 23h1" /><path stroke="#3e2d55" d="M22 23h1" /><path stroke="#000000" d="M17 10h1M17 11h1M17 12h1M17 13h1M5 14h2M17 14h1M5 15h2M16 15h3M5 16h14M5 17h14M5 18h14M5 19h13M5 20h13M6 21h11M6 22h10M7 23h8" /><path stroke="#f6f7f6" d="M8 6h1" /><path stroke="#f8f8f8" d="M9 6h1M11 8h1" /><path stroke="#f6f6f6" d="M10 6h1M7 7h1M11 9h1" /><path stroke="#f4f3f2" d="M11 6h1" /><path stroke="#f0f0f0" d="M12 6h1M11 11h1" /><path stroke="#e7e7e6" d="M13 6h1" /><path stroke="#dddddd" d="M14 6h1" /><path stroke="#fbfafa" d="M8 7h1" /><path stroke="#fcfdfc" d="M9 7h1M9 9h1" /><path stroke="#fbfbfa" d="M10 7h1M8 9h1M10 9h1" /><path stroke="#f7f7f6" d="M11 7h1M8 10h1" /><path stroke="#f1f1f0" d="M12 7h1M8 11h1M10 11h1" /><path stroke="#efefee" d="M13 7h1M13 10h1M6 11h1M8 12h1" /><path stroke="#e6e6e5" d="M14 7h1M14 8h1M8 18h2" /><path stroke="#dcdddb" d="M15 7h1" /><path stroke="#000000" d="M6 8h1M16 8h1M6 9h1M16 9h1M6 10h1M16 10h1M5 11h1M16 11h1M5 12h1M16 12h1M5 13h1M16 13h1M6 14h1M12 14h1M16 14h1M6 15h1M12 15h2M15 15h1M7 16h2M15 16h1M7 17h1M9 17h6M6 18h1M10 18h1M7 19h1M9 19h1M6 20h1M10 20h1M7 21h1M9 21h1M6 22h1M10 22h1M7 23h1M9 23h1" /><path stroke="#f8f8f7" d="M7 8h1M9 10h1" /><path stroke="#fcfcfc" d="M8 8h1" /><path stroke="#ffffff" d="M9 8h1" /><path stroke="#fdfcfc" d="M10 8h1" /><path stroke="#f2f2f1" d="M12 8h1" /><path stroke="#f0efee" d="M13 8h1M13 9h1M10 12h1" /><path stroke="#dddddb" d="M15 8h1M15 9h1" /><path stroke="#f7f6f6" d="M7 9h1M10 10h1" /><path stroke="#f1f0f0" d="M12 9h1" /><path stroke="#e6e5e4" d="M14 9h1M14 10h1" /><path stroke="#f3f3f2" d="M7 10h1M11 10h1" /><path stroke="#f0f0ef" d="M12 10h1M7 11h1" /><path stroke="#dddcdb" d="M15 10h1" /><path stroke="#f2f2f2" d="M9 11h1" /><path stroke="#efeeee" d="M12 11h1" /><path stroke="#eeeeed" d="M13 11h1M8 13h1M10 13h1" /><path stroke="#e4e4e4" d="M14 11h1" /><path stroke="#dbdbdb" d="M15 11h1" /><path stroke="#eeeded" d="M6 12h1" /><path stroke="#eeeeee" d="M7 12h1M11 12h1" /><path stroke="#f0efef" d="M9 12h1" /><path stroke="#eeeeec" d="M12 12h1M9 13h1" /><path stroke="#ececec" d="M13 12h1M6 13h1" /><path stroke="#e4e4e3" d="M14 12h1" /><path stroke="#dbdbda" d="M15 12h1" /><path stroke="#ededec" d="M7 13h1M11 13h1" /><path stroke="#edecec" d="M12 13h1" /><path stroke="#ececea" d="M13 13h1M11 14h1" /><path stroke="#e4e3e2" d="M14 13h1M7 20h2" /><path stroke="#dad9d9" d="M15 13h1" /><path stroke="#ecebeb" d="M7 14h1" /><path stroke="#ececeb" d="M8 14h3" /><path stroke="#cac9c9" d="M13 14h1" /><path stroke="#e1e1e0" d="M14 14h1M8 22h1" /><path stroke="#d9d9d9" d="M15 14h1" /><path stroke="#eaeae9" d="M7 15h1M11 15h1" /><path stroke="#eaeaea" d="M8 15h2" /><path stroke="#ebeaea" d="M10 15h1" /><path stroke="#d9d9d8" d="M14 15h1" /><path stroke="#e9e9e8" d="M9 16h2" /><path stroke="#e9e8e8" d="M11 16h1" /><path stroke="#e8e8e7" d="M12 16h1" /><path stroke="#e1e0df" d="M13 16h1M8 23h1" /><path stroke="#d8d7d7" d="M14 16h1" /><path stroke="#e8e8e6" d="M8 17h1" /><path stroke="#e6e6e4" d="M7 18h1" /><path stroke="#e5e4e4" d="M8 19h1" /><path stroke="#e4e4e2" d="M9 20h1" /><path stroke="#e3e2e1" d="M8 21h1" /><path stroke="#e1e1df" d="M7 22h1M9 22h1" /><path stroke="#000000" d="M10 17h6M9 18h7M9 19h1M15 19h1M10 20h5" /><path stroke="#e5e4e4" d="M10 19h1" /><path stroke="#e4e4e4" d="M11 19h1" /><path stroke="#e4e4e3" d="M12 19h1" /><path stroke="#dcdddb" d="M13 19h1" /><path stroke="#d5d4d3" d="M14 19h1" /><path stroke="rgba(0,0,0,0.4)" d="M8 10h3M13 10h3" /><path stroke="rgba(0,0,0,0.07058823529411765)" d="M8 11h1M13 11h1M8 12h1M13 12h1" /><path stroke="#000000" d="M9 11h2M14 11h2M10 12h1M15 12h1" /><path stroke="#4d4d4d" d="M9 12h1M14 12h1" /><path stroke="#000000" d="M10 3h3M8 4h2M13 4h2M7 5h1M15 5h1M6 6h1M16 6h1M5 7h1M17 7h1M4 8h1M8 8h8M18 8h1M4 9h1M7 9h1M18 9h1M4 10h1M6 10h1M18 10h1M3 11h1M6 11h1M19 11h1M3 12h1M5 12h1M19 12h1M3 13h1M5 13h1M19 13h1M3 14h1M19 14h1M2 15h1M4 15h1M20 15h1M2 16h1M4 16h1M20 16h1M2 17h1M4 17h1M20 17h1M2 18h1M4 18h1M20 18h1M3 19h1M19 19h1M3 20h1M19 20h1M4 21h1M6 21h1M18 21h1M4 22h1M6 22h1M17 22h1M4 23h1M6 23h1M16 23h1" /><path stroke="#763838" d="M10 4h1M8 5h2M7 6h1M6 7h1M5 8h1M5 9h1M5 10h1M4 11h1M4 12h1M4 13h1M4 14h1M3 15h1M3 16h1M3 17h1M3 18h1M4 19h1M4 20h1M5 21h1M5 22h1M5 23h1" /><path stroke="#662121" d="M11 4h1M10 5h4M8 6h7M7 7h9M6 8h2M16 8h1M6 9h1M5 11h1" /><path stroke="#5c1e1e" d="M12 4h1M14 5h1M15 6h1M16 7h1M17 8h1M17 9h1M17 10h1M17 11h2M18 12h1M18 13h1M18 14h1M19 15h1M19 16h1M19 17h1M19 18h1M18 19h1M18 20h1M17 21h1M16 22h1M13 23h3" /><path stroke="#000000" d="M6 10h2M16 10h3M6 11h2M17 11h2M7 12h1M17 12h1M7 13h1M17 13h1" /><path stroke="#0e0e0e" d="M8 10h4M13 10h3M8 14h1M16 14h1" /><path stroke="#d69700" d="M8 11h1M14 11h1" /><path stroke="#d38a00" d="M9 11h1M15 11h1" /><path stroke="#cf7a00" d="M10 11h1M16 11h1" /><path stroke="#212121" d="M11 11h1M13 11h1M9 14h1M15 14h1" /><path stroke="#414141" d="M12 11h1M11 13h1M13 13h1" /><path stroke="#d38900" d="M8 12h1M14 12h1" /><path stroke="#d07b00" d="M9 12h1M15 12h1" /><path stroke="#cd6e00" d="M10 12h1M16 12h1M9 13h1M15 13h1" /><path stroke="#343434" d="M11 12h1M13 12h1M10 14h1M14 14h1" /><path stroke="#d17a00" d="M8 13h1M14 13h1" /><path stroke="#ca5f00" d="M10 13h1M16 13h1" /></svg>